<?xml version="1.0" encoding="UTF-8"?>
<svg id="Capa_2" xmlns="http://www.w3.org/2000/svg" version="1.1" viewBox="0 0 335.3 95">
  <!-- Generator: Adobe Illustrator 30.7.0, SVG Export Plug-In . SVG Version: 2.1.4 Build 114)  -->
  <defs>
    <style>
      .st0 {
        fill: #014b38;
      }
    </style>
  </defs>
  <path class="st0" d="M129.2,66.6h6.9c.3,0,.5-.2.5-.5v-1.2c0-.3-.2-.5-.5-.5h-4.8v-2.8h3.8c.3,0,.5-.2.5-.5v-1.2c0-.3-.2-.5-.5-.5h-3.8v-2.7h4.8c.3,0,.5-.2.5-.5v-1.2c0-.3-.3-.6-.6-.5h-6.8c-.3,0-.5.2-.5.5v11.1c0,.3.2.5.5.5Z"/>
  <path class="st0" d="M149.3,66.7c1,0,1.9-.2,2.6-.5.7-.3,1.3-.8,1.8-1.4.2-.2.2-.5,0-.7l-.6-.7c-.1-.1-.2-.2-.4-.2-.2-.1-.5,0-.8.2-.2.2-.4.3-.5.4-.2.1-.4.2-.5.3-.2,0-.4.1-.6.2-.6,0-1.5,0-2.1-.2-.4-.2-.8-.4-1-.7-.3-.3-.5-.7-.7-1.2-.2-.5-.3-1.1-.3-1.7s0-1.2.3-1.7c.2-.5.4-.9.7-1.2.3-.3.7-.6,1.1-.8.4-.2.9-.3,1.4-.3s.6,0,.8,0c.2,0,.4,0,.6.2.2,0,.3.1.4.2.1,0,.2.1.4.2l.2.2c.3.2.7.2,1,0,0,0,0,0,.1,0,0,0,.1-.1.2-.2l.5-.7c.1-.2.1-.5,0-.7-.5-.5-1.1-.9-1.7-1.1-.7-.3-1.4-.4-2.3-.4s-1.7.1-2.5.5c-.8.3-1.4.7-1.9,1.3-.5.5-1,1.2-1.3,2-.3.8-.4,1.6-.4,2.5s.1,1.7.4,2.5c.3.8.7,1.4,1.2,2,.5.5,1.1,1,1.8,1.3.7.3,1.5.5,2.4.5Z"/>
  <path class="st0" d="M166.5,66.7c.9,0,1.7-.2,2.4-.5.7-.3,1.4-.7,1.9-1.3.5-.6.9-1.2,1.2-2,.3-.7.4-1.6.4-2.5s-.1-1.7-.4-2.5c-.3-.8-.7-1.4-1.2-2-.5-.6-1.2-1-1.9-1.3-.7-.3-1.5-.5-2.4-.5s-1.7.2-2.4.5c-.7.3-1.4.7-1.9,1.3-.5.6-.9,1.2-1.2,2-.3.7-.4,1.6-.4,2.5s.1,1.7.4,2.5c.3.8.7,1.4,1.2,2,.5.5,1.2,1,1.9,1.3.7.3,1.5.5,2.4.5ZM164,63.4c-.3-.3-.5-.7-.7-1.2-.2-.5-.3-1-.3-1.7s0-1.2.3-1.7c.2-.5.4-.9.7-1.2.3-.3.7-.6,1.1-.7.4-.2.9-.3,1.4-.3s1,0,1.4.3c.4.2.8.4,1.1.7.3.3.5.7.7,1.2.2.5.3,1,.3,1.7s0,1.2-.3,1.7c-.2.5-.4.9-.7,1.2-.3.3-.6.6-1.1.7-.8.3-2,.4-2.9,0-.4-.2-.8-.4-1.1-.7Z"/>
  <path class="st0" d="M196.6,66.1v-1.3c0-.3-.2-.5-.5-.5h-4.3v-9.4c0-.3-.2-.5-.5-.5h-1.5c-.3,0-.5.2-.5.5v11.1c0,.3.2.5.5.5h6.3c.3,0,.5-.2.5-.5Z"/>
  <path class="st0" d="M212.8,54.4h-1.5c-.3,0-.5.2-.5.5v6.8c0,.4,0,.8-.2,1.1-.1.3-.3.6-.5.8-.2.2-.4.4-.7.5-.3.1-.7.2-1,.2s0,0,0,0c-.4,0-.7,0-1-.2-.3-.1-.6-.3-.8-.5-.2-.2-.4-.5-.5-.8-.1-.4-.2-.7-.2-1.1v-6.8c0-.3-.2-.5-.5-.5h-1.5c-.3,0-.5.2-.5.5v6.8c0,.7.1,1.3.3,2,.2.6.6,1.1,1,1.6.4.5,1,.8,1.6,1.1.6.3,1.3.4,2,.4s1.4-.1,2-.4c.6-.2,1.1-.6,1.6-1.1.4-.5.8-1,1-1.6.2-.6.3-1.3.3-2v-6.8c0-.3-.2-.5-.5-.5Z"/>
  <path class="st0" d="M227.1,60.3l3.5-5.1c.1-.2.1-.4,0-.5,0-.2-.3-.3-.4-.3h-1.4c-.2,0-.4,0-.5.2,0,0-.2.1-.3.3l-2.5,3.7-2.4-3.7c0-.1-.2-.2-.3-.3-.1,0-.3-.1-.5-.1h-1.5c-.2,0-.4.1-.4.3,0,.2,0,.4,0,.5l3.5,5.1-3.6,5.4c-.1.2-.1.4,0,.5s.3.3.4.3h1.4c.3,0,.5-.1.6-.2s.1-.2.2-.3l2.6-4,2.5,3.9c0,0,.1.2.3.3.2.1.4.2.6.2h1.5c.2,0,.4-.1.4-.3,0-.2,0-.4,0-.5l-3.6-5.5Z"/>
  <path class="st0" d="M246.9,54.4h-1.5c-.3,0-.5.2-.5.5v6.8c0,.4,0,.8-.2,1.1-.1.3-.3.6-.5.8-.2.2-.5.4-.7.5-.3.1-.7.2-1,.2s0,0,0,0c-.4,0-.7,0-1-.2-.3-.1-.6-.3-.8-.5-.2-.2-.4-.5-.5-.8-.1-.4-.2-.7-.2-1.1v-6.8c0-.3-.2-.5-.5-.5h-1.5c-.3,0-.5.2-.5.5v6.8c0,.7.1,1.3.3,2,.2.6.6,1.1,1,1.6.4.5,1,.8,1.6,1.1.6.3,1.3.4,2,.4s1.4-.1,2-.4c.6-.2,1.1-.6,1.6-1.1.4-.5.8-1,1-1.6.2-.6.3-1.3.3-2v-6.8c0-.3-.2-.5-.5-.5Z"/>
  <path class="st0" d="M261.4,61.4c.2,0,.3-.1.5-.2.4-.2.7-.5,1-.8.3-.3.5-.7.6-1.1.1-.4.2-.8.2-1.3s0-1-.3-1.5c-.2-.4-.5-.8-.9-1.2-.4-.3-.9-.6-1.5-.7-.5-.2-1.2-.2-2-.2h-3.1c-.3,0-.5.2-.5.5v11.1c0,.3.2.5.5.5h1.5c.3,0,.5-.2.5-.5v-4.2h.6c.2,0,.2,0,.2,0,0,0,0,0,.1.1l2.9,3.9c.2.4.6.6,1,.6h1.3c.2,0,.4-.1.4-.3,0-.2,0-.4,0-.5l-3.2-4.4ZM261.1,58.8c0,.2-.2.4-.4.5-.2.1-.4.3-.7.4-.3,0-.6.1-1,.1h-1.1v-3.2h1.2c.8,0,1.3.1,1.6.4.3.2.5.6.5,1.1s0,.5-.1.7Z"/>
  <path class="st0" d="M280.6,54.4h-1.3c-.3,0-.5,0-.7.3s-.2.2-.3.3l-2.5,4.3s0,0,0,0c0,0,0,0,0,0l-2.5-4.3c0-.1-.2-.3-.3-.4-.2-.1-.4-.2-.7-.2h-1.3c-.2,0-.3,0-.4.3,0,.2,0,.4,0,.5l4,6.6v4.3c0,.3.2.5.5.5h1.5c.3,0,.5-.2.5-.5v-4.2l4-6.6c0-.2,0-.3,0-.5,0-.2-.3-.3-.4-.3Z"/>
  <path class="st0" d="M138.3,73.1h-1.5c-.3,0-.5.2-.5.5v4.5h-5v-4.5c0-.3-.2-.5-.5-.5h-1.5c-.3,0-.5.2-.5.5v11.1c0,.3.2.5.5.5h1.5c.3,0,.5-.2.5-.5v-4.6h5v4.6c0,.3.2.5.5.5h1.5c.3,0,.5-.2.5-.5v-11.1c0-.3-.2-.5-.5-.5Z"/>
  <path class="st0" d="M156.5,74.7c-.5-.6-1.2-1-1.9-1.3-.7-.3-1.5-.5-2.4-.5s-1.7.2-2.4.5c-.7.3-1.4.7-1.9,1.3-.5.6-.9,1.2-1.2,2-.3.7-.4,1.6-.4,2.5s.1,1.7.4,2.5c.3.8.7,1.4,1.2,2,.5.5,1.2,1,1.9,1.3.7.3,1.5.5,2.4.5s1.7-.1,2.4-.5c.7-.3,1.4-.7,1.9-1.3.5-.6.9-1.2,1.2-2,.3-.7.4-1.6.4-2.5s-.1-1.7-.4-2.5c-.3-.8-.7-1.4-1.2-2ZM155.6,79.1c0,.6,0,1.2-.3,1.7-.2.5-.4.8-.7,1.2-.3.3-.6.6-1.1.7-.8.3-2,.3-2.9,0-.4-.2-.8-.4-1.1-.7-.3-.3-.5-.7-.7-1.2-.2-.5-.3-1-.3-1.7s0-1.2.3-1.7c.2-.5.4-.9.7-1.2.3-.3.7-.6,1.1-.7.4-.2.9-.3,1.4-.3s1,0,1.4.3c.4.2.8.4,1.1.7.3.3.5.7.7,1.2.2.5.3,1,.3,1.7Z"/>
  <path class="st0" d="M172.9,73.1h-8.7c-.3,0-.5.2-.5.5v1.3c0,.3.2.5.5.5h3.1v9.4c0,.3.2.5.5.5h1.5c.3,0,.5-.2.5-.5v-9.4h3.1c.3,0,.5-.2.5-.5v-1.3c0-.3-.2-.5-.5-.5Z"/>
  <path class="st0" d="M187.6,73.1h-6.8c-.3,0-.5.2-.5.5v11.1c0,.3.2.5.5.5h6.9c.3,0,.5-.2.5-.5v-1.2c0-.3-.2-.5-.5-.5h-4.8v-2.8h3.8c.3,0,.5-.2.5-.5v-1.2c0-.3-.2-.5-.5-.5h-3.8v-2.7h4.8c.3,0,.5-.2.5-.5v-1.2c0-.3-.3-.6-.6-.5Z"/>
  <path class="st0" d="M202.6,82.9h-4.3v-9.4c0-.3-.2-.5-.5-.5h-1.5c-.3,0-.5.2-.5.5v11.1c0,.3.2.5.5.5h6.3c.3,0,.5-.2.5-.5v-1.3c0-.3-.2-.5-.5-.5Z"/>
  <path class="st0" d="M66.4,18.6c-.2,0-.4,0-.6.2l-29.3,40.2L7.2,18.8c-.1-.2-.4-.2-.6-.2-.2,0-.3.3-.3.5v54.7c0,.3.2.5.5.5h.6c.3,0,.5-.2.5-.5V22.6l3.5,4.7c0,0,0,0,0,.2v46.3c0,.3.2.5.5.5h.6c.3,0,.5-.2.5-.5V31l23.1,32.7c.2.3.6.3.8,0l23.1-32.7v42.8c0,.3.2.5.5.5h.6c.3,0,.5-.2.5-.5V27.5c0,0,0-.1,0-.2l3.5-4.7v51.2c0,.3.2.5.5.5h.6c.3,0,.5-.2.5-.5V19.1c0-.2-.1-.4-.3-.5ZM36.5,61.4s0,0,0,0h0c0,0,0,0,0,0,0,0,0,0,0,0Z"/>
  <path class="st0" d="M148.5,40.3c0,1-.2,1.3-.2,1.3,0,0-.4.3-1.6.3s-.6,0-.6.7.5.7.6.7c.4,0,.9,0,1.4,0,1.1,0,2.5,0,3.6,0,.6,0,1.2,0,1.6,0s.6-.2.6-.7-.1-.5-.3-.6c0,0-.2-.1-.3-.1-.7,0-1.3,0-1.6-.1-.3,0-.4-.2-.4-.3,0-.2-.2-.5-.2-1.2l-.6-14.2c0-.6.1-1.1.4-1.2.3-.1.8-.3,2-.3s.6,0,.6-.7-.5-.7-.6-.7c-.4,0-.7,0-1.1,0-.3,0-.7,0-1.2,0s-.5,0-.7,0c-.2,0-.4,0-.5,0-.3,0-.6.1-.8.3-.2.2-.4.4-.6.7l-6.4,14.6-6.4-13.8c-.3-.7-.6-1.2-.8-1.4-.3-.3-.6-.4-1-.4s-.3,0-.6,0c-.4,0-.8,0-1.6,0-.4,0-.7,0-1,0s-.6,0-.6.7.5.7.6.7c.8,0,1.4.2,1.9.8l-.3,14.2s0,0,0,.1c0,.9-.2,1.5-.4,1.9-.2.3-.7.5-1.4.5s-.6,0-.6.7.5.7.6.7c.4,0,.8,0,1.3,0,.9,0,2,0,2.9,0,.5,0,1,0,1.4,0s.6,0,.6-.7-.5-.7-.6-.7c-.8,0-1.4-.2-1.7-.5-.2-.2-.4-.7-.4-1.9l.2-11.3,6.6,14.4c0,.1.2.4.7.4s.7-.3.7-.4l6.3-14.4.4,12Z"/>
  <path class="st0" d="M191.1,42.5c0-.3-.1-.5-.3-.6,0,0-.2,0-.3,0-.4,0-.7,0-1-.2-.3-.2-.6-.5-.9-1-.3-.5-.7-1.3-1.2-2.3l-7.1-15.1c0-.2-.3-.4-.6-.4s-.5.1-.7.4l-6.4,15.3c-.4.9-.7,1.7-1.1,2.2-.3.4-.6.8-.9.9s-.7.2-1.2.2-.6.2-.6.7.3.7.6.7c.6,0,1.2,0,1.6,0,.4,0,1,0,1.7,0s1.4,0,1.9,0c.5,0,1.1,0,1.7,0s.6-.3.6-.7-.3-.7-.6-.7c-1.5,0-2.1-.3-2.3-.6-.3-.3-.2-1.1.2-2.1l1.9-4.7h6.6l2.7,5.9c.3.8.3,1.1.2,1.2,0,0-.4.3-1.8.3s-.6.2-.6.7.3.7.6.7c.6,0,1.1,0,1.6,0,.8,0,2,0,3.3,0,.6,0,1.2,0,1.8,0s.6-.2.6-.7ZM182,32.9h-5.2l2.5-5.9,2.8,5.9Z"/>
  <path class="st0" d="M222.6,24.5c0,0,.6,0,.6-.7s-.5-.7-.6-.7c-.5,0-.9,0-1.2,0-.3,0-.7,0-1.2,0-.8,0-1.4,0-1.9,0-.5,0-1,0-1.6,0s-.6,0-.6.7.5.7.6.7c.6,0,1,.1,1.1.3,0,.1.1.5-.6,1.6l-3.5,5.3-4.7-6.8c-.1-.1-.2-.2-.2-.3.1,0,.5-.1,1.2-.1s.6,0,.6-.7-.5-.7-.6-.7c-.4,0-.7,0-1.2,0-.4,0-.9,0-1.4,0-.5,0-1,0-1.5,0-.3,0-.7,0-1.1,0-.4,0-.8,0-1.1,0s-.6.2-.6.7.3.7.6.7c.7,0,1.2.1,1.6.4.5.3.9.8,1.4,1.5l5.1,7.4v6.4c0,.6,0,1-.2,1.1,0,0-.1.2-.5.3-.2,0-.7.1-1.6.1s-.6.2-.6.7.3.7.6.7c.5,0,1,0,1.6,0,1.2,0,2.6,0,3.8,0,.6,0,1.1,0,1.6,0s.6-.2.6-.7-.3-.7-.6-.7c-.9,0-1.4,0-1.6-.1-.3,0-.4-.3-.4-.3,0-.2-.1-.5-.1-1.2v-6.8l4.2-6.4c.4-.6.7-1,1.2-1.4.4-.4.8-.6,1.2-.8.4-.2.9-.3,1.3-.3Z"/>
  <path class="st0" d="M257.7,42.5c0-.3-.1-.5-.3-.6,0,0-.2,0-.3,0-.4,0-.7,0-1-.2-.3-.2-.6-.5-.9-1-.3-.5-.7-1.3-1.2-2.3l-7.1-15.1c0-.2-.3-.4-.6-.4s-.5.1-.7.4l-6.4,15.3c-.4.9-.7,1.6-1.1,2.2-.3.5-.6.8-.9.9-.3.2-.7.2-1.2.2s-.6.2-.6.7.3.7.6.7c.6,0,1.2,0,1.6,0,.4,0,1,0,1.7,0s1.4,0,1.9,0c.5,0,1.1,0,1.7,0s.6-.3.6-.7-.3-.7-.6-.7c-1.5,0-2.1-.3-2.3-.6-.3-.3-.2-1.1.2-2.1l1.9-4.7h6.6l2.7,5.9c.3.8.3,1.1.2,1.2,0,0-.4.3-1.8.3s-.6.2-.6.7.3.7.6.7c.6,0,1.1,0,1.6,0,.8,0,2,0,3.3,0,.6,0,1.2,0,1.8,0s.6-.2.6-.7ZM248.6,32.9h-5.2l2.5-5.9,2.8,5.9Z"/>
  <path class="st0" d="M288.4,22.2c-.3,0-.6.2-.7.5,0,.1-.1.2-.4.3-.4,0-.8.1-1.5.1s-1.6,0-2.5,0c-.8,0-2,0-3.4,0-2.3,0-4.4,0-6.1,0-.2,0-.4,0-.6,0-.2,0-.4,0-.5-.1,0-.4-.3-.6-.7-.6s-.7.3-.7.6,0,.7,0,1.2c0,.4,0,.9,0,1.3v.3c0,.5-.1,1-.2,1.5,0,.5,0,.8-.1,1.1,0,0,0,.6.7.6s.7-.5.7-.5c.2-1.5.6-2.5,1.1-3,.5-.5,1.3-.8,2.4-.8s.1,0,.2,0c.8,0,1.5,0,2,0,.3,0,.5.1.6.2,0,.1.2.4.2,1.1v14.1c0,.5,0,.9-.2,1.1,0,0-.1.2-.6.3-.4,0-1,.1-1.9.1s-.6,0-.6.7.5.7.6.7c.5,0,1.2,0,1.8,0,1.3,0,2.9,0,4.2,0,.7,0,1.3,0,1.8,0s.6,0,.6-.7-.5-.7-.6-.7c-.9,0-1.5,0-1.9-.1-.3,0-.5-.2-.5-.3,0-.2-.2-.5-.2-1.1v-14.1c0-.8.1-1.1.2-1.1,0-.1.3-.2.6-.3.5,0,1.2-.1,2.1-.1s2.1.2,2.5.7c.4.5.7,1.5.7,2.9s0,.6.7.6.7-.5.7-.6c0-.2,0-.6,0-1.1,0-.5,0-1,0-1.6,0-.6,0-1.1,0-1.6,0-.5,0-.9,0-1.3,0-.4-.3-.6-.7-.6Z"/>
  <path class="st0" d="M328.4,22.2c-.3,0-.6.2-.7.5,0,.1-.1.2-.4.3-.4,0-.8.1-1.5.1s-1.6,0-2.5,0c-.8,0-2,0-3.4,0-2.3,0-4.4,0-6.1,0-.2,0-.4,0-.6,0-.2,0-.4,0-.5-.1,0-.4-.3-.6-.7-.6s-.7.3-.7.6,0,.7,0,1.2c0,.4,0,.9,0,1.3v.2c0,.5-.1,1-.2,1.5,0,.5,0,.8-.1,1.1,0,0,0,.6.7.6s.7-.5.7-.5h0c.2-1.5.6-2.5,1.1-3,.5-.5,1.3-.8,2.4-.8s.1,0,.2,0c.8,0,1.5,0,2,0,.3,0,.5.1.6.2,0,.1.2.4.2,1.1v14.1c0,.5,0,.9-.2,1.1,0,0-.1.2-.6.3-.4,0-1,.1-1.9.1s-.6,0-.6.7.5.7.6.7c.5,0,1.2,0,1.8,0,1.3,0,2.9,0,4.2,0,.7,0,1.3,0,1.8,0s.6,0,.6-.7-.5-.7-.6-.7c-.9,0-1.5,0-1.9-.1-.3,0-.5-.2-.5-.3,0-.2-.2-.5-.2-1.1v-14.1c0-.8.1-1.1.2-1.1,0-.1.3-.2.6-.3.5,0,1.2-.1,2.1-.1s2.1.2,2.5.7c.4.5.7,1.5.7,2.9s0,.6.7.6.7-.5.7-.6c0-.2,0-.6,0-1.1v-1.6c0-.6.1-1.1.1-1.6,0-.5,0-.9,0-1.3,0-.4-.3-.6-.6-.6Z"/>
  <rect class="st0" x="95.1" y="6.5" width="2" height="82.1" rx=".5" ry=".5"/>
</svg>